<?xml version="1.0" standalone="no"?>
<!DOCTYPE svg PUBLIC "-//W3C//DTD SVG 20010904//EN"
 "http://www.w3.org/TR/2001/REC-SVG-20010904/DTD/svg10.dtd">
<svg version="1.0" xmlns="http://www.w3.org/2000/svg"
 width="3184.000000pt" height="3184.000000pt" viewBox="0 0 3184.000000 3184.000000"
 preserveAspectRatio="xMidYMid meet">
<metadata>
Created by potrace 1.14, written by Peter Selinger 2001-2017
</metadata>
<g transform="translate(0.000000,3184.000000) scale(0.100000,-0.100000)"
fill="#000000" stroke="none">
<path d="M6473 29192 c-78 -3 -83 -4 -84 -25 -6 -224 -2 -1007 6 -1007 6 0 3
-5 -5 -11 -12 -8 -12 -12 -2 -16 10 -4 10 -8 1 -19 -9 -11 -8 -14 2 -14 11 0
11 -2 0 -9 -12 -8 -12 -12 -2 -25 11 -14 11 -16 -5 -16 -12 0 -15 -3 -8 -8 9
-5 11 -1655 10 -6345 -1 -4219 2 -6337 9 -6337 6 0 3 -5 -5 -11 -12 -8 -12
-12 -2 -16 10 -4 10 -8 1 -19 -9 -11 -8 -14 2 -14 11 0 11 -2 0 -9 -12 -8 -12
-12 -2 -25 11 -14 11 -16 -5 -16 -12 0 -15 -3 -8 -8 9 -5 11 -324 10 -1225 -1
-805 2 -1217 9 -1217 6 0 3 -5 -5 -11 -12 -8 -12 -12 -2 -16 10 -4 10 -8 1
-19 -9 -11 -8 -14 2 -14 11 0 11 -2 0 -9 -12 -8 -12 -12 -2 -25 11 -14 11 -16
-5 -16 -12 0 -15 -3 -8 -8 8 -5 11 -1332 11 -5023 0 -2759 3 -5020 6 -5025 4
-7 11708 -12 11762 -5 7 1 10 1242 10 3701 l0 3700 45 1 c25 0 1685 0 3690 0
2005 0 3653 3 3663 5 16 5 17 470 17 9580 l0 9574 -32 0 c-211 2 -19015 4
-19075 2z m4312 -4333 c5 9 11 9 23 -1 10 -9 13 -9 9 -1 -5 8 0 11 13 10 11
-1 20 -5 20 -10 0 -6 5 -6 13 0 9 7 112 10 112 3 0 -1 10 -3 22 -4 12 -1 20 1
17 5 -2 4 5 7 16 6 11 -1 20 -5 20 -10 0 -5 7 -4 15 3 11 9 18 10 28 1 8 -6
17 -8 20 -4 10 9 98 10 125 1 14 -5 21 -4 17 1 -3 6 4 9 15 8 11 -1 20 -5 20
-10 0 -5 7 -4 15 3 11 9 19 9 28 2 7 -6 18 -7 26 -3 8 5 27 5 42 1 17 -5 31
-5 35 1 4 6 10 6 18 0 7 -6 16 -8 19 -4 12 11 57 12 57 1 0 -6 6 -6 15 2 11 9
18 10 28 1 8 -6 17 -8 20 -4 10 9 98 10 125 1 14 -5 21 -4 17 1 -3 6 4 9 15 8
11 -1 20 -5 20 -10 0 -5 7 -4 15 3 11 9 19 9 28 2 7 -6 18 -8 24 -4 9 6 98 8
98 2 0 -1 10 -3 22 -4 12 -1 20 1 17 5 -2 4 5 7 16 6 11 -1 20 -5 20 -10 0 -5
7 -4 15 3 11 9 18 10 28 1 8 -6 17 -8 20 -4 10 9 59 10 85 1 14 -5 21 -4 17 1
-3 6 4 9 15 8 11 -1 20 -6 20 -11 0 -6 5 -5 12 2 9 9 15 9 27 -1 11 -9 13 -9
8 0 -5 8 0 11 13 10 11 -1 20 -6 20 -11 0 -6 5 -5 12 2 9 9 15 9 27 -1 11 -9
13 -9 8 0 -5 8 0 11 13 10 11 -1 20 -6 20 -11 0 -6 5 -5 12 2 9 9 15 9 27 -1
11 -9 13 -9 8 0 -5 8 0 11 13 10 11 -1 20 -6 20 -11 0 -6 5 -5 12 2 9 9 15 9
27 -1 11 -9 13 -9 8 0 -5 8 0 11 13 10 11 -1 20 -6 20 -11 0 -6 5 -5 12 2 9 9
15 9 27 -1 11 -9 13 -9 8 0 -5 8 0 11 13 10 11 -1 20 -6 20 -11 0 -6 5 -5 12
2 9 9 15 9 27 -1 11 -9 13 -9 8 0 -5 8 0 11 13 10 11 -1 20 -6 20 -11 0 -6 5
-5 12 2 9 9 15 9 27 -1 11 -9 13 -9 8 0 -5 8 0 11 13 10 11 -1 20 -6 20 -11 0
-6 5 -5 12 2 9 9 15 9 27 -1 11 -9 13 -9 8 0 -5 8 0 11 13 10 11 -1 20 -6 20
-11 0 -6 5 -5 12 2 9 9 15 9 27 -1 11 -9 13 -9 8 0 -5 8 0 11 13 10 11 -1 20
-6 20 -11 0 -6 5 -5 12 2 9 9 15 9 27 -1 11 -9 13 -9 8 0 -5 8 0 11 13 10 11
-1 20 -6 20 -11 0 -6 5 -5 12 2 9 9 15 9 27 -1 11 -9 13 -9 8 0 -5 8 0 11 13
10 11 -1 20 -6 20 -11 0 -6 5 -5 12 2 9 9 15 9 27 -1 11 -9 13 -9 8 0 -5 8 0
11 13 10 11 -1 20 -6 20 -11 0 -6 5 -5 12 2 9 9 15 9 27 -1 11 -9 13 -9 8 0
-5 8 0 11 13 10 11 -1 20 -6 20 -11 0 -6 5 -5 12 2 9 9 15 9 27 -1 11 -9 13
-9 8 0 -5 8 0 11 13 10 11 -1 20 -6 20 -11 0 -6 5 -5 12 2 9 9 15 9 27 -1 11
-9 13 -9 8 0 -5 8 0 11 13 10 11 -1 20 -5 20 -10 0 -6 5 -6 13 0 9 7 112 10
112 3 0 -1 10 -3 22 -4 12 -1 20 1 17 5 -2 4 5 7 16 6 11 -1 20 -5 20 -10 0
-5 7 -4 15 3 11 9 18 10 28 1 8 -6 17 -8 20 -4 10 9 98 10 125 1 14 -5 21 -4
17 1 -3 6 4 9 15 8 11 -1 20 -5 20 -10 0 -5 7 -4 15 3 11 9 19 9 28 2 7 -6 18
-7 26 -3 8 5 27 5 42 1 17 -5 31 -5 35 1 4 6 10 6 18 0 7 -6 16 -8 19 -4 12
11 57 12 57 1 0 -6 6 -6 15 2 11 9 18 10 28 1 8 -6 17 -8 20 -4 10 9 98 10
125 1 14 -5 21 -4 17 1 -3 6 4 9 15 8 11 -1 20 -5 20 -10 0 -5 7 -4 15 3 11 9
19 9 28 2 7 -6 18 -8 24 -4 9 6 98 8 98 2 0 -1 10 -3 22 -4 12 -1 20 1 17 5
-2 4 5 7 16 6 11 -1 20 -5 20 -10 0 -5 7 -4 15 3 11 9 18 10 28 1 8 -6 17 -8
20 -4 10 9 59 10 85 1 14 -5 21 -4 17 1 -3 6 4 9 15 8 11 -1 20 -6 20 -11 0
-6 5 -5 12 2 9 9 15 9 27 -1 11 -9 13 -9 8 0 -5 8 0 11 13 10 11 -1 20 -6 20
-11 0 -6 5 -5 12 2 9 9 15 9 27 -1 11 -9 13 -9 8 0 -5 8 0 11 13 10 11 -1 20
-6 20 -11 0 -6 5 -5 12 2 9 9 15 9 27 -1 11 -9 13 -9 8 0 -5 8 0 11 13 10 11
-1 20 -6 20 -11 0 -6 5 -5 12 2 9 9 15 9 27 -1 11 -9 13 -9 8 0 -5 8 0 11 13
10 11 -1 20 -6 20 -11 0 -6 5 -5 12 2 9 9 15 9 27 -1 11 -9 13 -9 8 0 -5 8 0
11 13 10 11 -1 20 -6 20 -11 0 -6 5 -5 12 2 9 9 15 9 27 -1 11 -9 13 -9 8 0
-5 8 0 11 13 10 11 -1 20 -6 20 -11 0 -6 5 -5 12 2 9 9 15 9 27 -1 11 -9 13
-9 8 0 -5 8 0 11 13 10 11 -1 20 -5 20 -10 0 -6 5 -6 13 0 9 7 112 10 112 3 0
-1 10 -3 22 -4 12 -1 20 1 17 5 -2 4 5 7 16 6 11 -1 20 -5 20 -10 0 -5 7 -4
15 3 11 9 18 10 28 1 8 -6 17 -8 20 -4 10 9 98 10 125 1 14 -5 21 -4 17 1 -3
6 4 9 15 8 11 -1 20 -5 20 -10 0 -5 7 -4 15 3 11 9 19 9 28 2 7 -6 18 -7 26
-3 8 5 27 5 42 1 17 -5 31 -5 35 1 4 6 10 6 18 0 7 -6 16 -8 19 -4 12 11 57
12 57 1 0 -6 6 -6 15 2 11 9 18 10 28 1 8 -6 17 -8 20 -4 10 9 98 10 125 1 14
-5 21 -4 17 1 -3 6 4 9 15 8 11 -1 20 -5 20 -10 0 -5 7 -4 15 3 11 9 19 9 28
2 7 -6 18 -8 24 -4 9 6 98 8 98 2 0 -1 10 -3 22 -4 12 -1 20 1 17 5 -2 4 5 7
16 6 11 -1 20 -5 20 -10 0 -5 7 -4 15 3 11 9 19 9 28 2 7 -6 18 -8 24 -4 9 6
178 8 178 2 0 -1 10 -3 22 -4 12 -1 20 1 17 5 -2 4 5 7 16 6 11 -1 20 -5 20
-10 0 -5 7 -4 15 3 11 9 18 10 28 1 8 -6 17 -8 20 -4 10 9 98 10 125 1 14 -5
21 -4 17 1 -3 6 4 9 15 8 11 -1 20 -5 20 -10 0 -5 7 -4 15 3 11 9 19 9 28 2 7
-6 18 -7 26 -3 8 5 27 5 42 1 17 -5 31 -5 35 1 4 6 10 6 18 0 7 -6 16 -8 19
-4 12 11 57 12 57 1 0 -6 6 -6 15 2 11 9 18 10 28 1 8 -6 17 -8 20 -4 10 9 98
10 125 1 14 -5 21 -4 17 1 -3 6 4 9 15 8 11 -1 20 -5 20 -10 0 -5 7 -4 15 3
11 9 19 9 28 2 7 -6 18 -8 24 -4 9 6 98 8 98 2 0 -1 10 -3 22 -4 12 -1 20 1
17 5 -2 4 5 7 16 6 11 -1 20 -5 20 -10 0 -5 7 -4 15 3 11 9 18 10 28 1 8 -6
17 -8 20 -4 10 9 98 10 125 1 14 -5 21 -4 17 1 -3 6 4 9 15 8 11 -1 20 -5 20
-10 0 -5 7 -4 15 3 11 9 19 9 28 2 7 -6 18 -7 26 -3 8 5 27 5 42 1 17 -5 31
-5 35 1 4 6 10 6 18 0 7 -6 16 -8 19 -4 12 11 57 12 57 1 0 -6 6 -6 15 2 11 9
18 10 28 1 8 -6 17 -8 20 -4 10 9 98 10 125 1 14 -5 21 -4 17 1 -3 6 4 9 15 8
11 -1 20 -5 20 -10 0 -5 7 -4 15 3 11 9 19 9 28 2 7 -6 18 -7 27 -2 7 4 24 4
37 -1 15 -5 22 -5 18 0 -3 6 4 9 15 8 11 -1 20 -5 20 -10 0 -5 7 -4 15 3 11 9
19 9 28 2 7 -6 18 -7 26 -3 8 5 27 5 42 1 17 -5 31 -5 35 1 4 6 10 6 18 0 7
-6 16 -8 19 -4 12 11 57 12 57 1 0 -6 6 -6 15 2 11 9 18 10 28 1 8 -6 17 -8
20 -4 10 9 98 10 125 1 14 -5 21 -4 17 1 -3 6 4 9 15 8 11 -1 20 -5 20 -10 0
-5 7 -4 15 3 8 6 20 8 27 4 17 -11 48 -13 42 -3 -2 4 5 7 16 6 11 -1 20 -6 20
-11 0 -6 5 -5 12 2 9 9 15 9 27 -1 11 -9 13 -9 8 0 -5 8 0 11 13 10 11 -1 20
-6 20 -11 0 -6 5 -5 12 2 9 9 15 9 27 -1 11 -9 13 -9 8 0 -5 8 0 11 13 10 11
-1 20 -6 20 -11 0 -6 5 -5 12 2 9 9 15 9 27 -1 11 -9 13 -9 8 0 -5 8 0 11 13
10 11 -1 20 -6 20 -11 0 -6 5 -5 12 2 9 9 15 9 27 -1 11 -9 13 -9 8 0 -5 8 0
11 13 10 11 -1 20 -6 20 -11 0 -6 5 -5 12 2 9 9 15 9 27 -1 11 -9 13 -9 8 0
-5 8 0 11 13 10 11 -1 20 -6 20 -11 0 -6 5 -5 12 2 9 9 15 9 27 -1 11 -9 13
-9 8 0 -5 8 0 11 13 10 11 -1 20 -6 20 -11 0 -6 5 -5 12 2 9 9 15 9 27 -1 11
-9 13 -9 8 0 -5 8 0 11 13 10 11 -1 20 -5 20 -10 0 -6 5 -6 13 0 9 7 112 10
112 3 0 -1 10 -3 22 -4 12 -1 20 1 17 5 -2 4 5 7 16 6 11 -1 20 -5 20 -10 0
-5 7 -4 15 3 11 9 18 10 28 1 8 -6 17 -8 20 -4 10 9 98 10 125 1 14 -5 21 -4
17 1 -3 6 4 9 15 8 11 -1 20 -5 20 -10 0 -5 7 -4 15 3 11 9 19 9 28 2 7 -6 18
-7 26 -3 8 5 27 5 42 1 17 -5 31 -5 35 1 4 6 10 6 18 0 7 -6 16 -8 19 -4 12
11 57 12 57 1 0 -6 6 -6 15 2 11 9 18 10 28 1 8 -6 17 -8 20 -4 10 9 98 10
125 1 14 -5 21 -4 17 1 -3 6 4 9 15 8 11 -1 20 -5 20 -10 0 -5 7 -4 15 3 11 9
19 9 28 2 7 -6 18 -8 24 -4 9 6 98 8 98 2 0 -1 10 -3 22 -4 12 -1 20 1 17 5
-2 4 5 7 16 6 11 -1 20 -5 20 -10 0 -5 7 -4 15 3 11 9 18 10 28 1 8 -6 17 -8
20 -4 10 9 59 10 85 1 14 -5 21 -4 17 1 -3 6 4 9 15 8 11 -1 20 -6 20 -11 0
-6 5 -5 11 1 6 6 17 9 23 7 8 -3 10 -1348 9 -5192 -1 -2853 -2 -5213 -2 -5244
l-1 -57 -3695 0 c-3051 0 -3697 -2 -3707 -13 -15 -15 -16 -37 -5 -55 5 -7 4
-13 -1 -13 -5 0 -9 -7 -9 -15 0 -8 4 -15 8 -15 5 0 4 -11 -1 -25 -5 -13 -6
-26 -2 -29 9 -5 7 -74 -2 -83 -3 -4 -1 -12 5 -20 6 -7 7 -13 2 -13 -5 0 -10
-7 -10 -15 0 -8 4 -15 9 -15 5 0 4 -10 -3 -21 -8 -16 -8 -20 1 -14 9 6 9 3 1
-12 -7 -14 -7 -23 1 -31 8 -8 8 -12 2 -12 -6 0 -11 -7 -11 -15 0 -8 5 -15 10
-15 5 0 4 -7 -3 -15 -10 -12 -10 -15 1 -15 9 0 10 -3 4 -8 -13 -9 -16 -42 -4
-42 6 0 5 -9 -1 -20 -8 -14 -8 -20 0 -20 6 0 8 -5 4 -12 -10 -15 -11 -98 -1
-98 4 0 3 -9 -3 -20 -8 -15 -8 -20 2 -20 8 0 9 -3 3 -8 -12 -8 -13 -37 -2 -48
4 -4 1 -14 -6 -22 -10 -13 -9 -14 1 -8 11 7 12 4 3 -11 -7 -14 -7 -23 1 -31 8
-8 8 -12 2 -12 -6 0 -11 -7 -11 -15 0 -8 4 -15 9 -15 5 0 4 -10 -3 -21 -8 -16
-8 -20 1 -14 9 6 9 3 1 -12 -7 -14 -7 -23 1 -31 8 -8 8 -12 2 -12 -6 0 -11 -7
-11 -15 0 -8 4 -15 9 -15 5 0 4 -10 -3 -21 -8 -16 -8 -20 1 -14 9 6 9 3 1 -12
-7 -14 -7 -23 1 -31 8 -8 8 -12 2 -12 -6 0 -11 -7 -11 -15 0 -8 4 -15 9 -15 5
0 4 -10 -3 -21 -8 -16 -8 -20 1 -14 9 6 9 3 1 -12 -7 -14 -7 -23 1 -31 8 -8 8
-12 2 -12 -6 0 -11 -7 -11 -15 0 -8 4 -15 9 -15 5 0 4 -10 -3 -21 -8 -16 -8
-20 1 -14 9 6 9 3 1 -12 -7 -14 -7 -23 1 -31 8 -8 8 -12 2 -12 -6 0 -11 -7
-11 -15 0 -8 4 -15 9 -15 5 0 4 -10 -3 -21 -8 -16 -8 -20 1 -14 9 6 9 2 1 -14
-9 -16 -9 -21 1 -21 8 0 9 -3 3 -8 -13 -9 -16 -42 -4 -42 6 0 5 -9 -1 -20 -8
-14 -8 -20 0 -20 6 0 8 -5 4 -12 -10 -15 -11 -98 -1 -98 4 0 3 -9 -3 -20 -8
-15 -8 -20 2 -20 8 0 9 -3 3 -8 -12 -8 -13 -32 -2 -49 5 -8 3 -13 -5 -13 -9 0
-9 -3 2 -10 8 -5 10 -10 5 -10 -6 0 -11 -9 -11 -20 0 -11 4 -20 8 -20 5 0 4
-9 -2 -20 -8 -14 -8 -20 0 -20 6 0 8 -5 4 -12 -10 -15 -11 -98 -1 -98 4 0 3
-9 -3 -20 -8 -15 -8 -20 2 -20 8 0 9 -3 3 -8 -12 -8 -13 -37 -2 -48 4 -4 1
-14 -6 -22 -10 -13 -9 -14 1 -8 11 7 12 4 3 -11 -7 -14 -7 -23 1 -31 8 -8 8
-12 2 -12 -6 0 -11 -7 -11 -15 0 -8 4 -15 9 -15 5 0 4 -10 -3 -21 -8 -16 -8
-20 1 -14 9 6 9 3 1 -12 -7 -14 -7 -23 1 -31 8 -8 8 -12 2 -12 -6 0 -11 -7
-11 -15 0 -8 4 -15 9 -15 5 0 4 -10 -3 -21 -8 -16 -8 -20 1 -14 9 6 9 3 1 -12
-7 -14 -7 -23 1 -31 8 -8 8 -12 2 -12 -6 0 -11 -7 -11 -15 0 -8 4 -15 9 -15 5
0 4 -10 -3 -21 -8 -16 -8 -20 1 -14 9 6 9 3 1 -12 -7 -14 -7 -23 1 -31 8 -8 8
-12 2 -12 -6 0 -11 -7 -11 -15 0 -8 4 -15 9 -15 5 0 4 -10 -3 -21 -8 -16 -8
-20 1 -14 9 6 9 3 1 -12 -7 -14 -7 -23 1 -31 8 -8 8 -12 2 -12 -6 0 -11 -7
-11 -15 0 -8 4 -15 9 -15 5 0 4 -10 -3 -21 -8 -16 -8 -20 1 -14 9 6 9 2 1 -14
-9 -16 -9 -21 1 -21 8 0 9 -3 3 -8 -13 -9 -16 -42 -4 -42 6 0 5 -9 -1 -20 -8
-14 -8 -20 0 -20 6 0 8 -5 4 -12 -10 -15 -11 -98 -1 -98 4 0 3 -9 -3 -20 -8
-15 -8 -20 2 -20 8 0 9 -3 3 -8 -11 -8 -13 -37 -3 -48 4 -3 3 -15 -2 -25 -6
-10 -7 -20 -2 -23 8 -5 7 -74 -2 -83 -3 -4 -1 -12 5 -20 6 -7 7 -13 2 -13 -5
0 -10 -7 -10 -15 0 -8 4 -15 9 -15 5 0 4 -10 -3 -21 -8 -16 -8 -20 1 -14 9 6
9 3 1 -12 -7 -14 -7 -23 1 -31 8 -8 8 -12 2 -12 -6 0 -11 -7 -11 -15 0 -8 4
-15 8 -15 5 0 4 -11 -1 -25 -5 -13 -6 -26 -2 -29 9 -5 7 -74 -2 -83 -3 -4 -1
-12 5 -20 6 -7 7 -13 2 -13 -5 0 -10 -7 -10 -15 0 -8 4 -15 9 -15 5 0 4 -10
-3 -21 -8 -16 -8 -20 1 -14 9 6 9 3 1 -12 -7 -14 -7 -23 1 -31 8 -8 8 -12 2
-12 -6 0 -11 -7 -11 -15 0 -8 4 -15 8 -15 5 0 4 -11 -1 -25 -5 -13 -6 -26 -2
-29 9 -5 7 -74 -2 -83 -3 -4 -1 -12 5 -20 6 -7 7 -13 2 -13 -5 0 -10 -7 -10
-15 0 -8 4 -15 9 -15 5 0 4 -10 -3 -21 -8 -16 -8 -20 1 -14 9 6 9 3 1 -12 -7
-14 -7 -23 1 -31 8 -8 8 -12 2 -12 -6 0 -11 -7 -11 -15 0 -8 4 -15 8 -15 5 0
4 -11 -1 -25 -5 -13 -6 -26 -2 -29 9 -5 7 -74 -2 -83 -3 -4 -1 -12 5 -20 6 -7
7 -13 2 -13 -5 0 -10 -7 -10 -15 0 -8 4 -15 9 -15 5 0 4 -10 -3 -21 -8 -16 -8
-20 1 -14 9 6 9 3 1 -12 -7 -14 -7 -23 1 -31 8 -8 8 -12 2 -12 -6 0 -11 -7
-11 -15 0 -8 4 -15 9 -15 5 0 4 -10 -3 -21 -8 -16 -8 -20 1 -14 9 6 9 3 1 -12
-7 -14 -7 -23 1 -31 8 -8 8 -12 2 -12 -6 0 -11 -7 -11 -15 0 -8 4 -15 9 -15 5
0 4 -10 -3 -21 -8 -16 -8 -20 1 -14 9 6 9 3 1 -12 -7 -14 -7 -23 1 -31 8 -8 8
-12 2 -12 -6 0 -11 -7 -11 -15 0 -8 4 -15 9 -15 5 0 4 -10 -3 -21 -8 -16 -8
-20 1 -14 9 6 9 3 1 -12 -7 -14 -7 -23 1 -31 8 -8 8 -12 2 -12 -6 0 -11 -7
-11 -15 0 -8 4 -15 9 -15 5 0 4 -10 -3 -21 -8 -16 -8 -20 1 -14 9 6 9 3 1 -12
-7 -14 -7 -23 1 -31 8 -8 8 -12 2 -12 -6 0 -11 -7 -11 -15 0 -8 4 -15 9 -15 5
0 4 -10 -3 -21 -8 -16 -8 -20 1 -14 9 6 9 3 1 -12 -7 -14 -7 -23 1 -31 8 -8 8
-12 2 -12 -6 0 -11 -7 -11 -15 0 -8 4 -15 9 -15 5 0 4 -10 -3 -21 -8 -16 -8
-20 1 -14 9 6 9 2 1 -14 -9 -16 -9 -21 1 -21 8 0 9 -3 3 -8 -13 -9 -16 -42 -4
-42 6 0 5 -9 -1 -20 -8 -14 -8 -20 0 -20 6 0 8 -5 4 -12 -10 -15 -11 -98 -1
-98 4 0 3 -9 -3 -20 -8 -15 -8 -20 2 -20 8 0 9 -3 3 -8 -12 -8 -13 -37 -2 -48
4 -4 1 -14 -6 -22 -10 -13 -9 -14 1 -8 11 7 12 4 3 -11 -7 -14 -7 -23 1 -31 8
-8 8 -12 2 -12 -6 0 -11 -7 -11 -15 0 -8 4 -15 9 -15 5 0 4 -10 -3 -21 -8 -16
-8 -20 1 -14 9 6 9 3 1 -12 -7 -14 -7 -23 1 -31 8 -8 8 -12 2 -12 -6 0 -11 -7
-11 -15 0 -8 4 -15 9 -15 5 0 4 -10 -3 -21 -8 -16 -8 -20 1 -14 9 6 9 3 1 -12
-7 -14 -7 -23 1 -31 8 -8 8 -12 2 -12 -6 0 -11 -7 -11 -15 0 -8 4 -15 9 -15 5
0 4 -10 -3 -21 -8 -16 -8 -20 1 -14 9 6 9 3 1 -12 -7 -14 -7 -23 1 -31 8 -8 8
-12 2 -12 -6 0 -11 -7 -11 -15 0 -8 4 -15 9 -15 5 0 4 -10 -3 -21 -8 -16 -8
-20 1 -14 9 6 9 3 1 -12 -7 -14 -7 -23 1 -31 8 -8 8 -12 2 -12 -6 0 -11 -7
-11 -15 0 -8 4 -15 9 -15 5 0 4 -10 -3 -21 -8 -16 -8 -20 1 -14 9 6 9 2 1 -14
-9 -16 -9 -21 1 -21 8 0 9 -3 3 -8 -13 -9 -16 -42 -4 -42 6 0 5 -9 -1 -20 -8
-14 -8 -20 0 -20 6 0 8 -5 4 -12 -10 -15 -11 -98 -1 -98 4 0 3 -9 -3 -20 -8
-15 -8 -20 2 -20 8 0 9 -3 3 -8 -12 -8 -13 -37 -2 -48 4 -4 1 -14 -6 -22 -10
-13 -9 -14 1 -8 11 7 12 4 3 -11 -7 -14 -7 -23 1 -31 8 -8 8 -12 2 -12 -6 0
-11 -7 -11 -15 0 -8 4 -15 9 -15 5 0 4 -10 -3 -21 -8 -16 -8 -20 1 -14 9 6 9
3 1 -12 -7 -14 -7 -23 1 -31 8 -8 8 -12 2 -12 -6 0 -11 -7 -11 -15 0 -8 4 -15
9 -15 5 0 4 -10 -3 -21 -8 -16 -8 -20 1 -14 9 6 9 3 1 -12 -7 -14 -7 -23 1
-31 8 -8 8 -12 2 -12 -6 0 -11 -7 -11 -15 0 -8 4 -15 9 -15 5 0 4 -10 -3 -21
-8 -16 -8 -20 1 -14 9 6 9 3 1 -12 -7 -14 -7 -23 1 -31 8 -8 8 -12 2 -12 -6 0
-11 -7 -11 -15 0 -8 4 -15 9 -15 5 0 4 -10 -3 -21 -8 -16 -8 -20 1 -14 9 6 9
3 1 -12 -7 -14 -7 -23 1 -31 8 -8 8 -12 2 -12 -6 0 -11 -7 -11 -15 0 -8 4 -15
8 -15 5 0 5 -8 2 -17 -6 -15 -8 -62 -3 -80 5 -19 2 -74 -4 -80 -3 -3 -1 -12 5
-20 6 -7 7 -13 2 -13 -5 0 -10 -7 -10 -15 0 -8 4 -15 9 -15 5 0 4 -10 -3 -21
-8 -16 -8 -20 1 -14 9 6 9 3 1 -12 -7 -14 -7 -23 1 -31 8 -8 8 -12 2 -12 -6 0
-11 -7 -11 -15 0 -8 4 -15 8 -15 5 0 4 -11 -1 -25 -5 -13 -6 -26 -2 -29 9 -5
7 -74 -2 -83 -3 -4 -1 -12 5 -20 6 -7 7 -13 2 -13 -5 0 -10 -7 -10 -15 0 -8 4
-15 9 -15 5 0 4 -10 -3 -21 -8 -17 -8 -20 1 -14 10 6 10 3 2 -11 -10 -18 -51
-19 -1531 -19 -1360 -1 -1521 1 -1522 15 -5 133 1 17882 6 17890 6 9 9 9 15 0
6 -9 9 -9 15 -1z"/>
<path d="M14143 21782 c-6 -4 -86 -7 -177 -7 -109 1 -166 -3 -167 -10 0 -5 -2
-20 -3 -32 -2 -13 1 -23 6 -23 5 0 4 -9 -2 -20 -8 -15 -8 -20 2 -20 8 0 9 -3
3 -8 -12 -8 -13 -32 -2 -49 5 -8 3 -13 -5 -13 -9 0 -9 -3 2 -10 8 -5 10 -10 5
-10 -6 0 -11 -9 -11 -20 0 -11 4 -20 8 -20 5 0 4 -9 -2 -20 -8 -14 -8 -20 0
-20 6 0 8 -5 4 -12 -10 -15 -11 -98 -1 -98 4 0 3 -9 -3 -20 -8 -15 -8 -20 2
-20 8 0 9 -3 3 -8 -12 -8 -13 -32 -2 -49 4 -6 3 -14 -1 -17 -10 -6 -9 -36 2
-54 4 -6 3 -12 -2 -12 -5 0 -9 -7 -9 -15 0 -8 4 -15 9 -15 5 0 4 -10 -3 -21
-8 -16 -8 -20 1 -14 9 6 9 3 1 -12 -7 -14 -7 -23 1 -31 8 -8 8 -12 2 -12 -6 0
-11 -7 -11 -15 0 -8 4 -15 9 -15 5 0 4 -10 -3 -21 -8 -16 -8 -20 1 -14 9 6 9
3 1 -12 -7 -14 -7 -23 1 -31 8 -8 8 -12 2 -12 -6 0 -11 -7 -11 -15 0 -8 4 -15
9 -15 5 0 4 -10 -3 -21 -8 -16 -8 -20 1 -14 9 6 9 3 1 -12 -7 -14 -7 -23 1
-31 8 -8 8 -12 2 -12 -6 0 -11 -7 -11 -15 0 -8 4 -15 9 -15 5 0 4 -10 -3 -21
-8 -16 -8 -20 1 -14 9 6 9 3 1 -12 -7 -14 -7 -23 1 -31 8 -8 8 -12 2 -12 -6 0
-11 -7 -11 -15 0 -8 4 -15 9 -15 5 0 4 -10 -3 -21 -8 -16 -8 -20 1 -14 9 6 9
2 1 -14 -9 -16 -9 -21 1 -21 8 0 9 -3 3 -8 -13 -9 -16 -42 -4 -42 6 0 5 -9 -1
-20 -8 -14 -8 -20 0 -20 6 0 8 -5 4 -12 -10 -15 -11 -98 -1 -98 4 0 3 -9 -3
-20 -8 -15 -8 -20 2 -20 8 0 9 -3 3 -8 -12 -8 -13 -32 -2 -49 5 -8 3 -13 -5
-13 -9 0 -9 -3 2 -10 8 -5 10 -10 5 -10 -6 0 -11 -9 -11 -20 0 -11 4 -20 8
-20 5 0 4 -9 -2 -20 -8 -14 -8 -20 0 -20 6 0 8 -5 4 -12 -10 -15 -11 -98 -1
-98 4 0 3 -9 -3 -20 -8 -15 -8 -20 2 -20 8 0 9 -3 3 -8 -12 -8 -13 -32 -2 -49
4 -6 3 -14 -1 -17 -10 -6 -9 -36 2 -54 4 -6 3 -12 -2 -12 -5 0 -9 -7 -9 -15 0
-8 4 -15 9 -15 5 0 4 -10 -3 -21 -8 -16 -8 -20 1 -14 9 6 9 3 1 -12 -7 -14 -7
-23 1 -31 8 -8 8 -12 2 -12 -6 0 -11 -7 -11 -15 0 -8 4 -15 9 -15 5 0 4 -10
-3 -21 -8 -16 -8 -20 1 -14 9 6 9 3 1 -12 -7 -14 -7 -23 1 -31 8 -8 8 -12 2
-12 -6 0 -11 -7 -11 -15 0 -8 4 -15 9 -15 5 0 4 -10 -3 -21 -8 -16 -8 -20 1
-14 9 6 9 3 1 -12 -7 -14 -7 -23 1 -31 8 -8 8 -12 2 -12 -6 0 -11 -7 -11 -15
0 -8 4 -15 9 -15 5 0 4 -10 -3 -21 -8 -16 -8 -20 1 -14 9 6 9 3 1 -12 -7 -14
-7 -23 1 -31 8 -8 8 -12 2 -12 -6 0 -11 -7 -11 -15 0 -8 4 -15 9 -15 5 0 4
-10 -3 -21 -8 -16 -8 -20 1 -14 9 6 9 2 1 -14 -9 -16 -9 -21 1 -21 8 0 9 -3 3
-8 -13 -9 -16 -42 -4 -42 6 0 5 -9 -1 -20 -8 -14 -8 -20 0 -20 6 0 8 -5 4 -12
-10 -15 -11 -98 -1 -98 4 0 3 -9 -3 -20 -8 -15 -8 -20 2 -20 8 0 9 -3 3 -8
-11 -8 -13 -37 -3 -48 4 -3 3 -15 -2 -25 -6 -10 -7 -20 -2 -23 8 -5 7 -74 -2
-83 -3 -4 -1 -12 5 -20 6 -7 7 -13 2 -13 -5 0 -10 -7 -10 -15 0 -8 4 -15 9
-15 5 0 4 -10 -3 -21 -8 -16 -8 -20 1 -14 9 6 9 3 1 -12 -7 -14 -7 -23 1 -31
8 -8 8 -12 2 -12 -6 0 -11 -7 -11 -15 0 -8 4 -15 8 -15 5 0 4 -11 -1 -25 -5
-13 -6 -26 -2 -29 9 -5 7 -74 -2 -83 -3 -4 -1 -12 5 -20 6 -7 7 -13 2 -13 -5
0 -10 -7 -10 -15 0 -8 4 -15 9 -15 5 0 4 -10 -3 -21 -8 -16 -8 -20 1 -14 9 6
9 3 1 -12 -7 -14 -7 -23 1 -31 8 -8 8 -12 2 -12 -6 0 -11 -7 -11 -15 0 -8 4
-15 8 -15 5 0 4 -11 -1 -25 -5 -13 -6 -26 -2 -29 9 -5 7 -74 -2 -83 -3 -4 -1
-12 5 -20 6 -7 7 -13 2 -13 -5 0 -10 -7 -10 -15 0 -8 4 -15 9 -15 5 0 4 -10
-3 -21 -8 -16 -8 -20 1 -14 9 6 9 3 1 -12 -7 -14 -7 -23 1 -31 8 -8 8 -12 2
-12 -6 0 -11 -7 -11 -15 0 -8 4 -15 8 -15 5 0 4 -11 -1 -25 -5 -13 -6 -26 -2
-29 9 -5 7 -74 -2 -83 -3 -4 -1 -12 5 -20 6 -7 7 -13 2 -13 -5 0 -10 -7 -10
-15 0 -8 4 -15 9 -15 5 0 4 -10 -3 -21 -8 -16 -8 -20 1 -14 9 6 9 3 1 -12 -7
-14 -7 -23 1 -31 8 -8 8 -12 2 -12 -6 0 -11 -7 -11 -15 0 -8 4 -15 9 -15 5 0
4 -10 -3 -21 -8 -16 -8 -20 1 -14 9 6 9 3 1 -12 -7 -14 -7 -23 1 -31 8 -8 8
-12 2 -12 -6 0 -11 -7 -11 -15 0 -8 4 -15 9 -15 5 0 4 -10 -3 -21 -8 -16 -8
-20 1 -14 9 6 9 3 1 -12 -7 -14 -7 -23 1 -31 8 -8 8 -12 2 -12 -6 0 -11 -7
-11 -15 0 -8 4 -15 9 -15 5 0 6 -5 3 -11 -13 -21 -11 -68 3 -74 7 -3 991 -5
2185 -5 l2172 0 0 2160 c0 1432 -3 2160 -10 2161 -5 1 -39 3 -75 4 -36 2 -69
4 -75 5 -5 1 -14 1 -20 0 -29 -7 -215 -4 -215 4 0 5 -6 4 -13 -3 -14 -11 -47
-8 -69 5 -6 4 -9 3 -5 -2 6 -11 -203 -12 -220 -1 -7 5 -13 5 -13 0 0 -10 -251
-10 -268 0 -6 5 -12 4 -12 0 0 -7 -114 -9 -130 -3 -3 1 -9 1 -15 0 -29 -7
-215 -4 -215 4 0 5 -6 4 -13 -3 -14 -11 -47 -8 -69 5 -6 4 -9 3 -5 -2 6 -11
-203 -12 -220 -1 -7 5 -13 5 -13 0 0 -10 -251 -10 -268 0 -6 5 -12 4 -12 0 0
-7 -114 -9 -130 -3 -3 1 -9 1 -15 0 -29 -7 -215 -4 -215 4 0 5 -6 4 -13 -3
-14 -11 -47 -8 -69 5 -6 4 -9 3 -5 -2 6 -11 -203 -12 -220 -1 -7 5 -13 5 -13
0 0 -10 -251 -10 -268 0 -6 5 -12 4 -12 0 0 -7 -114 -9 -130 -3 -3 1 -9 1 -15
0 -29 -7 -215 -4 -215 4 0 5 -6 4 -13 -3 -14 -11 -47 -8 -69 5 -6 4 -9 3 -5
-2 6 -11 -203 -12 -220 -1 -7 5 -13 5 -13 0 0 -10 -251 -10 -268 0 -6 5 -12 4
-12 0 0 -10 -111 -10 -126 -1 -5 4 -15 4 -21 0z"/>
</g>
</svg>
